<svg xmlns="http://www.w3.org/2000/svg" width="800" height="800" viewBox="0 0 512 512"><path fill-rule="evenodd" d="M321.833 42.667H87.163v234.67h42.667V85.34h174.29l81.707 81.707v110.294h42.667v-128l-106.67-106.67zm-236.5 399.07 4.169-24.65c14.68 6.163 27.127 9.244 37.338 9.244 6.645 0 11.54-1.631 14.68-4.894 2.72-2.84 4.079-6.313 4.079-10.422 0-3.685-1.33-6.555-3.988-8.61s-9.213-5.225-19.666-9.515c-7.733-3.202-13.186-5.588-16.358-7.16s-6.087-3.352-8.745-5.346c-7.552-5.62-11.328-13.715-11.328-24.288 0-9.123 2.477-17.128 7.431-24.016 7.613-10.694 20.12-16.041 37.52-16.041 12.566 0 26.22 2.326 40.961 6.978l-5.8 23.562c-8.7-3.202-15.24-5.317-19.62-6.344s-8.957-1.54-13.73-1.54c-5.437 0-9.576 1.208-12.416 3.624-2.96 2.598-4.44 5.891-4.44 9.879 0 3.443 1.253 6.147 3.76 8.11 2.508 1.964 8.534 4.91 18.08 8.836 9.486 3.927 15.77 6.661 18.85 8.202s5.982 3.338 8.7 5.392c7.432 5.68 11.147 14.35 11.147 26.01 0 13.774-4.682 24.196-14.047 31.265-7.975 5.981-19.152 8.972-33.53 8.972-14.984 0-29.333-2.417-43.048-7.25zm146.72 4.984-48.666-128.42h30.088l21.388 57.638c5.437 14.681 9.516 26.765 12.234 36.25 4.169-13.292 8.126-24.982 11.872-35.072l22.022-58.816h28.638l-48.666 128.42h-28.909zm197.74-71.866v65.522c-7.37 2.478-12.567 4.109-15.588 4.894-9.365 2.477-19.424 3.716-30.178 3.716-21.146 0-37.247-5.317-48.303-15.95-12.265-11.721-18.397-28.064-18.397-49.028 0-24.106 7.612-42.292 22.838-54.556 11.056-8.942 25.979-13.412 44.769-13.412 16.071 0 31.024 2.93 44.859 8.79l-9.878 22.566c-6.525-3.262-12.234-5.543-17.128-6.842-4.894-1.299-10.271-1.948-16.131-1.948-14.017 0-24.348 4.561-30.994 13.684-5.619 7.733-8.428 17.914-8.428 30.54 0 15.166 4.229 26.584 12.688 34.257 6.766 6.162 15.165 9.244 25.194 9.244 5.86 0 11.419-.997 16.675-2.991v-25.828h-22.112v-22.656h50.116z"/></svg>